<svg xmlns="http://www.w3.org/2000/svg" version="1.1" xmlns:xlink="http://www.w3.org/1999/xlink" xmlns:svgjs="http://svgjs.dev/svgjs" width="1000" height="1000" viewBox="0 0 1000 1000"><rect width="1000" height="1000" fill="#ffffff"></rect><g transform="matrix(0.7,0,0,0.7,150.25292868393052,198.1945781751644)"><svg viewBox="0 0 286 247" data-background-color="#cf5260" preserveAspectRatio="xMidYMid meet" height="863" width="1000" xmlns="http://www.w3.org/2000/svg" xmlns:xlink="http://www.w3.org/1999/xlink"><g id="tight-bounds" transform="matrix(1,0,0,1,-0.10333934998868699,-0.10000133962191171)"><svg viewBox="0 0 286.20667878370887 247.2" height="247.2" width="286.20667878370887"><g><svg viewBox="0 0 395.52 341.6151726979381" height="247.2" width="286.20667878370887"><g transform="matrix(1,0,0,1,0,254.01841196174175)"><svg viewBox="0 0 395.52 87.59676073619633" height="87.59676073619633" width="395.52"><g id="textblocktransform"><svg viewBox="0 0 395.52 87.59676073619633" height="87.59676073619633" width="395.52" id="textblock"><g><svg viewBox="0 0 395.52 87.59676073619633" height="87.59676073619633" width="395.52"><g transform="matrix(1,0,0,1,0,0)"><svg width="395.52" viewBox="0.9500000476837158 -35.5 162.99000549316406 36.099998474121094" height="87.59676073619633" data-palette-color="#f0f0f0"><path d="M7.4 0.6L7.4 0.6Q4.2 0.6 2.58-0.65 0.95-1.9 0.95-3.65L0.95-3.65Q0.95-4.75 1.6-5.5 2.25-6.25 3.4-6.25L3.4-6.25Q4.4-6.25 4.98-5.58 5.55-4.9 5.55-3.9L5.55-3.9Q5.55-3.05 5.1-2.5 4.65-1.95 4-1.75L4-1.75 4-1.6Q4.55-1.35 5.35-1.18 6.15-1 7.4-1L7.4-1Q9.9-1 11.25-2.35 12.6-3.7 12.6-6.8L12.6-6.8 12.6-33.15 7.65-33.15 7.65-34.9 19.6-34.9 19.6-33.15 15.65-33.15 15.65-7.1Q15.65-3.1 13.4-1.25 11.15 0.6 7.4 0.6ZM40.05 0.6L40.05 0.6Q36.7 0.6 34.37-0.15 32.05-0.9 30.57-2.58 29.1-4.25 28.45-6.93 27.8-9.6 27.8-13.45L27.8-13.45 27.8-33.15 23.85-33.15 23.85-34.9 34.8-34.9 34.8-33.15 30.85-33.15 30.85-12.95Q30.85-9.95 31.32-7.78 31.8-5.6 32.87-4.23 33.95-2.85 35.75-2.18 37.55-1.5 40.25-1.5L40.25-1.5Q42.9-1.5 44.72-2.18 46.55-2.85 47.67-4.23 48.8-5.6 49.27-7.78 49.75-9.95 49.75-12.95L49.75-12.95 49.75-33.15 45.8-33.15 45.8-34.9 55.8-34.9 55.8-33.15 51.85-33.15 51.85-13.85Q51.85-10 51.25-7.28 50.65-4.55 49.27-2.8 47.9-1.05 45.62-0.23 43.35 0.6 40.05 0.6ZM72.45 0.6L72.45 0.6Q68.75 0.6 66.77-0.55 64.8-1.7 63.95-3.35L63.95-3.35 63.75-3.35 63.75 0 61.15 0 61.15-10.45 63.75-10.45 63.75-7.8Q63.75-6.45 64.17-5.25 64.6-4.05 65.57-3.2 66.55-2.35 68.1-1.85 69.65-1.35 71.95-1.35L71.95-1.35Q76.65-1.35 78.8-3.33 80.95-5.3 80.95-8.75L80.95-8.75Q80.95-10.35 80.45-11.53 79.95-12.7 79.05-13.55 78.15-14.4 76.87-14.98 75.6-15.55 74.05-15.95L74.05-15.95 71.05-16.75Q66.15-18.05 63.87-20.38 61.6-22.7 61.6-26.45L61.6-26.45Q61.6-28.6 62.37-30.28 63.15-31.95 64.57-33.13 66-34.3 68-34.9 70-35.5 72.45-35.5L72.45-35.5Q75.85-35.5 77.77-34.4 79.7-33.3 80.45-31.85L80.45-31.85 80.7-31.85 80.7-34.9 83.3-34.9 83.3-24.95 80.7-24.95 80.7-27.7Q80.7-30.35 78.7-31.95 76.7-33.55 72.45-33.55L72.45-33.55Q68.55-33.55 66.5-31.8 64.45-30.05 64.45-26.95L64.45-26.95Q64.45-23.85 66.4-22.28 68.35-20.7 71.65-19.8L71.65-19.8 74.55-19.05Q79.4-17.75 81.6-15.4 83.8-13.05 83.8-9.45L83.8-9.45Q83.8-7.25 83.07-5.4 82.35-3.55 80.92-2.23 79.5-0.9 77.37-0.15 75.25 0.6 72.45 0.6ZM96.29 0L96.29-1.75 101.24-1.75 101.24-33.05 91.14-33.05 91.14-26.9 88.54-26.9 88.54-34.9 116.99-34.9 116.99-26.9 114.39-26.9 114.39-33.05 104.29-33.05 104.29-1.75 109.24-1.75 109.24 0 96.29 0ZM133.19 0L133.19-1.75 137.14-1.75 137.14-33.15 133.19-33.15 133.19-34.9 144.14-34.9 144.14-33.15 140.19-33.15 140.19-14.9 140.34-14.9 145.84-20.95 156.99-33.15 152.74-33.15 152.74-34.9 162.89-34.9 162.89-33.15 159.59-33.15 148.04-20.65 160.49-1.75 163.94-1.75 163.94 0 152.99 0 152.99-1.75 156.94-1.75 145.94-18.45 140.19-12.3 140.19-1.75 144.14-1.75 144.14 0 133.19 0Z" opacity="1" transform="matrix(1,0,0,1,0,0)" fill="#000000" class="wordmark-text-0" data-fill-palette-color="primary" id="text-0"></path></svg></g></svg></g></svg></g></svg></g><g transform="matrix(1,0,0,1,91.4302869066874,0)"><svg viewBox="0 0 212.65942618662518 212.65942618662518" height="212.65942618662518" width="212.65942618662518"><g><svg></svg></g><g id="icon-0"><svg viewBox="0 0 212.65942618662518 212.65942618662518" height="212.65942618662518" width="212.65942618662518"><g><path d="M0 106.33c0-58.724 47.605-106.33 106.33-106.33 58.724 0 106.33 47.605 106.329 106.33 0 58.724-47.605 106.33-106.329 106.329-58.724 0-106.33-47.605-106.33-106.329zM106.33 204.76c54.361 0 98.43-44.069 98.43-98.43 0-54.361-44.069-98.43-98.43-98.43-54.361 0-98.43 44.069-98.43 98.43 0 54.361 44.069 98.43 98.43 98.43z" data-fill-palette-color="tertiary" fill="#000000" stroke="transparent"></path></g><g transform="matrix(1,0,0,1,65.97328390188406,45.371042420119075)"><svg viewBox="0 0 80.71285838285706 121.91734134638703" height="121.91734134638703" width="80.71285838285706"><g><svg xmlns="http://www.w3.org/2000/svg" xmlns:xlink="http://www.w3.org/1999/xlink" version="1.1" x="0" y="0" viewBox="24.761856079101562 5 59.5826416015625 90" enable-background="new 0 0 100 100" xml:space="preserve" height="121.91734134638703" width="80.71285838285706" class="icon-s-0" data-fill-palette-color="accent" id="s-0"><g fill="#f0f0f0" data-fill-palette-color="accent"><path d="M73.76 35.603C86.875 48 91.5 66.25 65.633 82.379c3.64-4.928 5.654-9.794 6.096-14.669 0.951-10.516-5.606-19.072-12.835-26.752C48.298 29.7 47.51 18.84 56.413 6.782 54.578 22.641 64.6 26.944 73.76 35.603zM45.288 93.716c6.184-13.053 7.276-20.302-8.197-34.939-4.204-3.977-7.451-8.029-9.71-12.086-2.881 6.435-5.164 20.081 3.244 27.935C36.312 79.938 44.125 83.125 45.288 93.716zM56.709 43.014C48.183 33.954 41.999 21.253 54 5 21.497 17.692 19.625 38.125 39.151 56.597 55.603 72.158 54.75 80.75 48 95 79.875 71.5 68.709 55.764 56.709 43.014z" fill="#000000" data-fill-palette-color="accent"></path></g><g display="none" fill="#f0f0f0" data-fill-palette-color="accent"><path display="inline" d="M54 5C16.75 17.5 14.875 56.5 26.75 70.762c10.558 12.68 15.407 7.949 19.675 20.824" fill="#000000" data-fill-palette-color="accent"></path><line display="inline" x1="56.988" y1="5.261" x2="45.528" y2="136.262" fill="#000000" data-fill-palette-color="accent"></line><line display="inline" x1="54.131" y1="3.502" x2="42.67" y2="134.502" fill="#000000" data-fill-palette-color="accent"></line><path display="inline" d="M42.875 76" fill="#000000" data-fill-palette-color="accent"></path></g></svg></g></svg></g></svg></g></svg></g><g></g></svg></g><defs></defs></svg><rect width="286.20667878370887" height="247.2" fill="none" stroke="none" visibility="hidden"></rect></g></svg></g></svg>